<svg xmlns="http://www.w3.org/2000/svg" viewBox="0 0 544.2 544.2" xmlns:v="https://vecta.io/nano"><path d="M272.1,0C2.1,0,0,121.8,0,272.1S2.1,544.2,272.1,544.2,544.2,422.4,544.2,272.1,542.1,0,272.1,0Z" fill="#c11"/><path d="M313.76 202.66c0 16.4-8.83 42.93-20.2 72 10.1 25.25 24 53 36.62 78.27 29-55.55 56.8-118.68 56.8-150.24 0-63.12-51.76-114.9-114.9-114.9s-114.9 51.74-114.9 114.86c0 60.6 104.8 237.34 114.9 253.77 3.8-6.32 18.94-31.57 36.6-64.4-34.08-61.86-77-150.24-77-189.38 1.26-22.72 18.94-40.4 41.66-40.4a39.88 39.88 0 0 1 40.39 40.4z" fill="#fff" fill-rule="evenodd"/></svg>